D:\PredSim\limbproperties\Ratio75\Ratio75_IK_walking_1.mot
version=1
nRows=4
nColumns=124
inDegrees=yes
endheader
                time	         pelvis_tilt	         pelvis_list	     pelvis_rotation	           pelvis_tx	           pelvis_ty	           pelvis_tz	       hip_flexion_r	     hip_adduction_r	      hip_rotation_r	        knee_angle_r	       ankle_angle_r	    subtalar_angle_r	         mtp_angle_r	       hip_flexion_l	     hip_adduction_l	      hip_rotation_l	        knee_angle_l	       ankle_angle_l	    subtalar_angle_l	         mtp_angle_l	    lumbar_extension	      lumbar_bending	     lumbar_rotation	          arm_flex_r	           arm_add_r	           arm_rot_r	        elbow_flex_r	          arm_flex_l	           arm_add_l	           arm_rot_l	        elbow_flex_l	glut_med1_r/activation	glut_med2_r/activation	glut_med3_r/activation	glut_min1_r/activation	glut_min2_r/activation	glut_min3_r/activation	semimem_r/activation	semiten_r/activation	bifemlh_r/activation	bifemsh_r/activation	    sar_r/activation	add_long_r/activation	add_brev_r/activation	add_mag1_r/activation	add_mag2_r/activation	add_mag3_r/activation	    tfl_r/activation	   pect_r/activation	   grac_r/activation	glut_max1_r/activation	glut_max2_r/activation	glut_max3_r/activation	iliacus_r/activation	  psoas_r/activation	quad_fem_r/activation	    gem_r/activation	   peri_r/activation	rect_fem_r/activation	vas_med_r/activation	vas_int_r/activation	vas_lat_r/activation	med_gas_r/activation	lat_gas_r/activation	 soleus_r/activation	tib_post_r/activation	flex_dig_r/activation	flex_hal_r/activation	tib_ant_r/activation	per_brev_r/activation	per_long_r/activation	per_tert_r/activation	ext_dig_r/activation	ext_hal_r/activation	glut_med1_l/activation	glut_med2_l/activation	glut_med3_l/activation	glut_min1_l/activation	glut_min2_l/activation	glut_min3_l/activation	semimem_l/activation	semiten_l/activation	bifemlh_l/activation	bifemsh_l/activation	    sar_l/activation	add_long_l/activation	add_brev_l/activation	add_mag1_l/activation	add_mag2_l/activation	add_mag3_l/activation	    tfl_l/activation	   pect_l/activation	   grac_l/activation	glut_max1_l/activation	glut_max2_l/activation	glut_max3_l/activation	iliacus_l/activation	  psoas_l/activation	quad_fem_l/activation	    gem_l/activation	   peri_l/activation	rect_fem_l/activation	vas_med_l/activation	vas_int_l/activation	vas_lat_l/activation	med_gas_l/activation	lat_gas_l/activation	 soleus_l/activation	tib_post_l/activation	flex_dig_l/activation	flex_hal_l/activation	tib_ant_l/activation	per_brev_l/activation	per_long_l/activation	per_tert_l/activation	ext_dig_l/activation	ext_hal_l/activation	 ercspn_r/activation	 ercspn_l/activation	 intobl_r/activation	 intobl_l/activation	 extobl_r/activation	 extobl_l/activation	
          1.26067275	         -5.50403044	         -1.30693295	          3.17238559	          1.24553896	          0.89640041	         -0.00425837	         26.33761761	          3.07218009	         -0.10953203	         -0.63772193	          0.81900638	         -3.30838556	          0.16886086	        -11.02213533	          1.83610491	          8.99843935	         -8.82768308	         12.04556089	         10.93487324	         10.37770894	          2.08383276	         -0.02125153	         -3.99258800	         -6.25025650	        -13.46747990	         13.69802383	         18.29591598	          1.34021727	        -13.46940255	         17.09513435	         27.77570850	          0.07321796	          0.05000021	          0.05000060	          0.05000012	          0.05000013	          0.05000024	          0.08482141	          0.06050529	          0.08351842	          0.05000004	          0.05000009	          0.11886286	          0.20306339	          0.18518569	          0.16267015	          0.10871394	          0.05000011	          0.05000087	          0.06050717	          0.07474394	          0.08522846	          0.08853658	          0.05000002	          0.05000002	          0.12595464	          0.05000009	          0.05000005	          0.05996715	          0.06871556	          0.06926984	          0.05889697	          0.05000001	          0.05000002	          0.05000045	          0.05087446	          0.05000077	          0.05000098	          0.34455725	          0.13755376	          0.17264003	          0.09956768	          0.41522577	          0.09607576	          0.47466311	          0.21423555	          0.12974721	          0.39322006	          0.30799347	          0.18999835	          0.05000019	          0.05000006	          0.05000003	          0.06138631	          0.11302702	          0.05000003	          0.05000003	          0.05000007	          0.05000020	          0.05000009	          0.33491584	          0.05000019	          0.05000016	          0.05000080	          0.05000031	          0.05000012	          0.28118202	          0.49639734	          0.05000004	          0.05000036	          0.10375325	          0.13363376	          0.05000006	          0.05000006	          0.05000005	          0.40781532	          0.46159348	          0.40547321	          0.36701227	          0.28940040	          0.35163187	          0.05000000	          0.05000009	          0.12404874	          0.05000003	          0.05000000	          0.05000004	          0.05791883	          0.05000000	          0.09446660	          0.05000000	          0.10461490	          0.05000000	
          1.27327947	         -5.52459468	         -1.36344274	          3.38805783	          1.26108433	          0.89597118	         -0.00384309	         25.41549409	          3.42772935	          0.11351931	          0.34502705	          0.16480260	         -3.40491992	          0.19480988	        -11.08663788	          1.65450858	          8.73356282	        -10.53751097	         11.38975930	         11.80955367	         11.43720315	          2.28430458	          0.15055390	         -4.10853014	         -7.04024234	        -13.47664857	         13.62957438	         17.87426132	          1.09178569	        -13.48767161	         17.32274280	         28.42495365	          0.06050545	          0.05368738	          0.05000005	          0.06050559	          0.06050550	          0.05000043	          0.08312201	          0.05000015	          0.08166372	          0.05000002	          0.05000007	          0.10722011	          0.27058621	          0.18576922	          0.16849840	          0.10834354	          0.05000004	          0.05338175	          0.05000233	          0.06176629	          0.08498349	          0.11325589	          0.05000003	          0.05000002	          0.17895008	          0.14595544	          0.08608008	          0.06907742	          0.09641482	          0.09626405	          0.08522484	          0.05000002	          0.05000002	          0.05000000	          0.05000002	          0.05000013	          0.05000012	          0.38947778	          0.20525326	          0.17738684	          0.12988808	          0.45933559	          0.07939415	          0.45787886	          0.17703779	          0.10721918	          0.32494524	          0.25451652	          0.15700890	          0.05000010	          0.05000004	          0.05000003	          0.05072780	          0.09340221	          0.05000007	          0.05000005	          0.05000013	          0.05000029	          0.05000009	          0.27676488	          0.05000029	          0.05000024	          0.05145422	          0.05000669	          0.05000036	          0.23236033	          0.47817440	          0.06050558	          0.05028805	          0.08573857	          0.11043110	          0.05000046	          0.05000040	          0.05000026	          0.37436038	          0.42748307	          0.37911075	          0.34172136	          0.26095918	          0.33620789	          0.05000000	          0.05000006	          0.14900967	          0.05000002	          0.05000000	          0.05000003	          0.05000006	          0.05000000	          0.07806434	          0.05000001	          0.08645059	          0.05000001	
          1.28588620	         -5.53664302	         -1.43697298	          3.58309433	          1.27697243	          0.89566059	         -0.00341502	         24.46138853	          3.74542518	          0.36181261	          0.75551626	         -0.88057797	         -3.46860413	          0.22724422	        -11.06252926	          1.45651958	          8.47245028	        -12.42936629	         10.50304894	         12.65541311	         12.66047251	          2.50583019	          0.34793517	         -4.20565301	         -7.85169049	        -13.49087023	         13.61477224	         17.46560125	          0.77995046	        -13.50642462	         17.54469693	         29.06252388	          0.05000000	          0.05000001	          0.07401872	          0.05000001	          0.05000001	          0.05000002	          0.07343504	          0.06840407	          0.06748454	          0.05000003	          0.05000005	          0.08860350	          0.22360434	          0.24139406	          0.19093606	          0.10468146	          0.05000003	          0.05001384	          0.11062417	          0.06050546	          0.07603278	          0.09797602	          0.05000001	          0.05000002	          0.31842444	          0.12061319	          0.07113398	          0.05708350	          0.07967434	          0.07954975	          0.07042728	          0.06050559	          0.06050560	          0.05704627	          0.06050560	          0.06050536	          0.06050565	          0.35847438	          0.22346844	          0.18764804	          0.13170702	          0.46799429	          0.09423549	          0.37839211	          0.14629868	          0.08860269	          0.28372883	          0.21032478	          0.12974742	          0.05000095	          0.05000008	          0.05000006	          0.05000004	          0.07718481	          0.05000003	          0.05000009	          0.05000015	          0.05000042	          0.05000139	          0.23832295	          0.05000020	          0.05000014	          0.05000038	          0.05000028	          0.05000031	          0.19201554	          0.44429270	          0.05000003	          0.05000042	          0.07085205	          0.12718563	          0.05642573	          0.06051279	          0.10090642	          0.31946845	          0.36578130	          0.34458356	          0.30948848	          0.21564894	          0.27783234	          0.05000000	          0.05431085	          0.16065502	          0.05000002	          0.05000000	          0.05000003	          0.05000000	          0.05000000	          0.06451001	          0.06050560	          0.07144015	          0.05587884	
          1.29849293	         -5.54093968	         -1.54130377	          3.75395275	          1.29309797	          0.89547567	         -0.00300060	         23.48136624	          3.98077906	          0.64066018	          0.83863755	         -2.35350904	         -3.49726140	          0.22618142	        -10.94407637	          1.23151415	          8.21005831	        -14.48546879	          9.36486898	         13.45993748	         14.01260743	          2.74042864	          0.58533204	         -4.27861865	         -8.66207795	        -13.51485506	         13.65780384	         17.05398993	          0.42332234	        -13.51648430	         17.75634025	         29.68165237	          0.24613412	          0.22640678	          0.25140593	          0.16946989	          0.12693423	          0.27329774	          0.06933871	          0.06236597	          0.06361431	          0.06050630	          0.05000065	          0.07321926	          0.18477987	          0.19948076	          0.15778380	          0.08650576	          0.05000020	          0.06050520	          0.09141650	          0.05000012	          0.06283124	          0.08096443	          0.05000025	          0.05000008	          0.26313632	          0.09967113	          0.19715638	          0.05000001	          0.06584050	          0.06573754	          0.05819901	          0.05000000	          0.05000001	          0.05000000	          0.05000001	          0.05000006	          0.05000010	          0.52408858	          0.27236720	          0.19384286	          0.10883886	          0.59587067	          0.23212169	          0.40121805	          0.12089680	          0.07321859	          0.25768710	          0.17380606	          0.10721935	          0.05000015	          0.05000004	          0.05000003	          0.05000003	          0.06378342	          0.05000006	          0.05000005	          0.05000012	          0.05000027	          0.05000010	          0.20539329	          0.05000027	          0.05000016	          0.05000207	          0.05000081	          0.05000021	          0.15867592	          0.43106692	          0.05000017	          0.05000026	          0.05855000	          0.10510236	          0.05000095	          0.05000616	          0.08338607	          0.26399905	          0.30227061	          0.28475343	          0.25575199	          0.17820579	          0.22959227	          0.05000000	          0.10399056	          0.17374795	          0.05000002	          0.05000000	          0.05000002	          0.05042171	          0.05000002	          0.08266460	          0.05000000	          0.05903598	          0.05000000	
